<?xml version="1.0" encoding="UTF-8"?>
<svg id="Camada_2" data-name="Camada 2" xmlns="http://www.w3.org/2000/svg" viewBox="0 0 784.5 524.34">
  <defs>
    <style>
      .cls-1 {
        fill: #cecece;
      }

      .cls-2 {
        fill: #00d000;
      }

      .cls-3 {
        fill: #fff4e7;
      }

      .cls-4 {
        fill: #5200d4;
      }

      .cls-5 {
        fill: #020102;
      }
    </style>
  </defs>
  <g id="OBJECTS">
    <g>
      <rect class="cls-3" y=".05" width="784.5" height="524.06"/>
      <g>
        <g>
          <rect class="cls-5" x="653.75" y="393.15" width="130.75" height="131.01" transform="translate(1438.24 917.32) rotate(180)"/>
          <path class="cls-4" d="M653.75,393.15v131.01c36.11,0,65.37-29.33,65.37-65.51s-29.27-65.51-65.37-65.51Z"/>
          <path class="cls-2" d="M784.5,524.17v-131.02c-36.11,0-65.37,29.33-65.37,65.51,0,36.18,29.27,65.51,65.37,65.51Z"/>
          <path class="cls-1" d="M763.58,497.96c-13.99-7.51-23.53-22.31-23.53-39.3s9.54-31.79,23.53-39.3v78.59Z"/>
        </g>
        <g>
          <rect class="cls-2" y=".11" width="130.75" height="131.02"/>
          <path class="cls-1" d="M65.37.11v131.02c36.11,0,65.37-29.33,65.37-65.51S101.48.11,65.37.11Z"/>
          <path class="cls-4" d="M0,.11v131.02c36.11,0,65.37-29.33,65.37-65.51S36.11.11,0,.11Z"/>
        </g>
        <g>
          <rect class="cls-1" x="130.75" y="196.63" width="65.37" height="65.51"/>
          <rect class="cls-1" x="196.12" y="131.12" width="65.37" height="65.51"/>
          <path class="cls-4" d="M239.23,196.63c0,23.86-19.3,43.19-43.11,43.19v-43.19h43.11Z"/>
          <path class="cls-4" d="M196.12,153.44v43.19h-43.11c0-23.86,19.3-43.19,43.11-43.19Z"/>
          <path class="cls-5" d="M153.02,196.63h43.11v43.19c-23.81,0-43.11-19.34-43.11-43.19Z"/>
          <path class="cls-5" d="M239.23,196.63h-43.11v-43.19c23.81,0,43.11,19.34,43.11,43.19Z"/>
        </g>
        <g>
          <g>
            <polygon class="cls-5" points="305.08 524.17 305.08 458.66 261.5 491.42 305.08 524.17"/>
            <polygon class="cls-5" points="348.67 524.17 348.67 458.66 305.08 491.42 348.67 524.17"/>
            <polygon class="cls-2" points="392.25 524.17 392.25 458.66 348.67 491.42 392.25 524.17"/>
          </g>
          <g>
            <polygon class="cls-4" points="348.67 393.15 348.67 458.66 392.25 425.91 348.67 393.15"/>
            <polygon class="cls-4" points="305.08 393.15 305.08 458.66 348.67 425.91 305.08 393.15"/>
            <polygon class="cls-2" points="261.5 393.15 261.5 458.66 305.08 425.91 261.5 393.15"/>
          </g>
        </g>
        <g>
          <polygon class="cls-5" points="0 458.66 65.37 524.17 65.37 458.66 0 458.66"/>
          <polygon class="cls-4" points="32.69 425.91 98.06 491.42 98.06 425.91 32.69 425.91"/>
          <polygon class="cls-2" points="65.37 393.15 130.75 458.66 130.75 393.15 65.37 393.15"/>
        </g>
        <g>
          <rect class="cls-2" x="523" y="131.12" width="130.75" height="131.01"/>
          <g>
            <polygon class="cls-5" points="653.75 196.63 588.37 131.12 588.37 196.63 653.75 196.63"/>
            <polygon class="cls-4" points="621.06 229.38 555.68 163.88 555.68 229.38 621.06 229.38"/>
            <polygon class="cls-4" points="588.37 262.14 523 196.63 523 262.14 588.37 262.14"/>
          </g>
        </g>
        <g>
          <polygon class="cls-5" points="130.75 131.12 130.75 262.14 0 262.14 0 196.63 65.37 131.12 130.75 131.12"/>
          <polygon class="cls-2" points="65.37 196.63 0 262.14 65.37 262.14 65.37 196.63"/>
          <polygon class="cls-2" points="130.75 196.63 65.37 262.14 130.75 262.14 130.75 196.63"/>
          <polygon class="cls-4" points="65.37 196.63 130.75 131.12 65.37 131.12 65.37 196.63"/>
        </g>
        <g>
          <rect class="cls-4" y="262.14" width="130.75" height="131.02"/>
          <polygon class="cls-5" points="98.06 393.15 0 393.15 0 360.4 32.69 327.65 98.06 393.15"/>
          <polygon class="cls-2" points="130.75 393.15 0 393.15 65.37 327.65 130.75 393.15"/>
          <polygon class="cls-1" points="130.75 360.4 130.75 393.15 32.69 393.15 98.06 327.65 130.75 360.4"/>
        </g>
        <g>
          <rect class="cls-2" x="130.75" y="262.14" width="130.75" height="131.02" transform="translate(392.25 655.29) rotate(180)"/>
          <ellipse class="cls-4" cx="196.12" cy="327.65" rx="34.46" ry="34.53"/>
          <polygon class="cls-5" points="130.75 262.14 261.5 262.14 196.12 327.65 130.75 262.14"/>
        </g>
        <g>
          <rect class="cls-4" x="653.75" y=".11" width="130.75" height="131.02" transform="translate(1438.24 131.23) rotate(180)"/>
          <path class="cls-2" d="M784.5,131.12h-130.75s0,0,0,0c36.11-34.97,94.64-34.97,130.75,0h0Z"/>
          <path class="cls-5" d="M784.5,104.9h-130.75c36.11-34.97,94.64-34.97,130.75,0h0Z"/>
          <path class="cls-2" d="M784.5,78.67h-130.75c36.11-34.97,94.64-34.97,130.75,0h0Z"/>
          <path class="cls-5" d="M784.5,52.45h-130.75c36.11-34.97,94.64-34.97,130.75,0h0Z"/>
          <path class="cls-2" d="M784.5,26.22h-130.75s0,0,0,0c36.11-34.97,94.64-34.97,130.75,0h0Z"/>
        </g>
        <g>
          <polygon class="cls-5" points="392.25 .11 392.25 64.21 325.47 64.21 325.47 131.12 261.5 131.12 261.5 .11 392.25 .11"/>
          <rect class="cls-1" x="293.25" y="31.93" width="67.25" height="67.38"/>
          <rect class="cls-4" x="293.25" y="31.93" width="33.62" height="33.69"/>
        </g>
        <g>
          <rect class="cls-4" x="261.5" y="131.12" width="130.75" height="131.01"/>
          <rect class="cls-5" x="294.19" y="163.88" width="98.53" height="65.51"/>
          <ellipse class="cls-2" cx="294.19" cy="196.63" rx="32.69" ry="32.75"/>
          <ellipse class="cls-1" cx="326.87" cy="196.63" rx="17.28" ry="17.31"/>
        </g>
        <g>
          <path class="cls-1" d="M523,196.89v65.25h-65.35c-.02-.44-.02-.88-.02-1.32,0-35.32,28.57-63.95,63.82-63.95.52,0,1.04.01,1.55.02Z"/>
          <path class="cls-2" d="M476.52,131.92v83.64h-83.78c-.03-.56-.03-1.13-.03-1.69,0-45.28,36.63-81.98,81.81-81.98.66,0,1.33.01,1.99.03Z"/>
        </g>
        <g>
          <rect class="cls-5" x="523" y="262.14" width="130.75" height="131.02"/>
          <path class="cls-4" d="M522.87,392.89v-130.62h130.83c.04.88.04,1.76.04,2.64,0,70.71-57.2,128.02-127.76,128.02-1.04,0-2.07-.02-3.11-.04Z"/>
          <path class="cls-5" d="M522.87,362.14v-99.88h100.04c.03.67.03,1.34.03,2.02,0,54.06-43.74,97.89-97.69,97.89-.79,0-1.59-.02-2.38-.03Z"/>
          <path class="cls-1" d="M522.87,330.77v-68.51h68.62c.02.46.02.92.02,1.38,0,37.08-30,67.14-67.01,67.14-.54,0-1.09-.01-1.63-.02Z"/>
        </g>
        <g>
          <rect class="cls-2" x="523" y="393.15" width="130.75" height="131.01"/>
          <path class="cls-5" d="M651.72,485.6c-49.77,0-90.12-40.43-90.12-90.3,0-.73,0-1.47.02-2.2h28.89c0,.5-.02,1.01-.02,1.51,0,34.21,27.68,61.94,61.82,61.94.42,0,.85,0,1.27-.02v29.05c-.63.03-1.24.03-1.86.03Z"/>
          <path class="cls-4" d="M524.8,431.83c49.77,0,90.12,40.43,90.12,90.3,0,.73,0,1.47-.02,2.2h-28.89c0-.5.02-1.01.02-1.51,0-34.21-27.68-61.94-61.82-61.94-.42,0-.85,0-1.27.02v-29.05c.63-.03,1.24-.03,1.86-.03Z"/>
        </g>
        <g>
          <rect class="cls-2" x="392.25" y=".11" width="130.75" height="131.02" transform="translate(915.25 131.23) rotate(180)"/>
          <g>
            <ellipse class="cls-1" cx="431.82" cy="39.76" rx="25.8" ry="25.86"/>
            <ellipse class="cls-5" cx="483.43" cy="39.76" rx="25.8" ry="25.86"/>
            <ellipse class="cls-4" cx="431.82" cy="91.47" rx="25.8" ry="25.86"/>
            <ellipse class="cls-1" cx="483.43" cy="91.47" rx="25.8" ry="25.86"/>
          </g>
        </g>
        <g>
          <rect class="cls-5" x="523" y=".11" width="32.66" height="32.73"/>
          <rect class="cls-1" x="555.77" y="32.73" width="32.66" height="32.73"/>
          <rect class="cls-1" x="555.77" y="98.18" width="32.66" height="32.73"/>
          <rect class="cls-5" x="588.43" y="65.45" width="32.66" height="32.73"/>
          <rect class="cls-5" x="523.11" y="65.45" width="32.66" height="32.73"/>
          <rect class="cls-5" x="588.43" y="0" width="32.66" height="32.73"/>
          <rect class="cls-1" x="621.09" y="98.18" width="32.66" height="32.73"/>
          <rect class="cls-1" x="621.09" y="32.73" width="32.66" height="32.73"/>
        </g>
        <g>
          <rect class="cls-5" x="392.25" y="393.15" width="130.75" height="131.01" transform="translate(915.25 917.32) rotate(180)"/>
          <path class="cls-4" d="M497.66,498.78c-13.16,3.52-27.21,2.86-40.04-1.99-8.42-3.19-16.33-8.18-23.12-14.97-6.78-6.8-11.76-14.73-14.94-23.16-4.84-12.86-5.5-26.94-1.99-40.12,13.16-3.52,27.21-2.86,40.04,1.99,8.42,3.19,16.33,8.18,23.12,14.97,6.78,6.8,11.76,14.73,14.94,23.16,4.84,12.86,5.5,26.94,1.99,40.12Z"/>
          <path class="cls-1" d="M495.68,458.66c-3.18-8.44-8.16-16.36-14.94-23.16-6.79-6.79-14.7-11.78-23.12-14.97,12.83-4.85,26.88-5.51,40.04-1.99,3.51,13.19,2.86,27.26-1.99,40.12Z"/>
          <path class="cls-1" d="M457.62,496.79c-12.83,4.85-26.88,5.51-40.04,1.99-3.51-13.19-2.86-27.26,1.99-40.12,3.18,8.44,8.16,16.36,14.94,23.16,6.79,6.79,14.7,11.78,23.12,14.97Z"/>
          <path class="cls-2" d="M495.68,458.66c-3.18,8.44-8.16,16.36-14.94,23.16-6.79,6.79-14.7,11.78-23.12,14.97-8.42-3.19-16.33-8.18-23.12-14.97-6.78-6.8-11.76-14.73-14.94-23.16,3.18-8.44,8.16-16.36,14.94-23.16,6.79-6.79,14.7-11.78,23.12-14.97,8.42,3.19,16.33,8.18,23.12,14.97,6.78,6.8,11.76,14.73,14.94,23.16Z"/>
        </g>
        <g>
          <rect class="cls-1" x="683.27" y="131.89" width="71.71" height="100.67"/>
          <path class="cls-2" d="M754.98,232.56h-71.71v-14.48c0-19.8,16.05-35.86,35.86-35.86h0c19.8,0,35.86,16.05,35.86,35.86v14.48Z"/>
        </g>
        <g>
          <rect class="cls-4" x="130.75" y=".11" width="130.75" height="131.02" transform="translate(392.25 131.23) rotate(180)"/>
          <ellipse class="cls-5" cx="196.12" cy="65.62" rx="65.37" ry="65.51"/>
          <ellipse class="cls-2" cx="196.12" cy="65.62" rx="32.71" ry="32.78"/>
        </g>
        <g>
          <rect class="cls-5" x="261.5" y="262.14" width="130.75" height="131.02"/>
          <g>
            <path class="cls-1" d="M392.25,274.48v-12.34c-36.05,0-65.37,29.38-65.37,65.51s29.32,65.51,65.37,65.51v-12.34c-29.26,0-53.06-23.85-53.06-53.17s23.8-53.17,53.06-53.17Z"/>
            <path class="cls-1" d="M392.25,298.46v-12.34c-22.85,0-41.44,18.63-41.44,41.53s18.59,41.53,41.44,41.53v-12.34c-16.06,0-29.12-13.09-29.12-29.18s13.07-29.18,29.12-29.18Z"/>
            <path class="cls-1" d="M392.25,321.29v-12.34c-10.29,0-18.67,8.39-18.67,18.7s8.38,18.7,18.67,18.7v-12.34c-3.51,0-6.35-2.85-6.35-6.36s2.84-6.36,6.35-6.36Z"/>
          </g>
          <path class="cls-4" d="M261.5,262.14v131.02c36.11,0,65.37-29.33,65.37-65.51s-29.27-65.51-65.37-65.51Z"/>
        </g>
        <g>
          <rect class="cls-4" x="130.75" y="393.15" width="130.75" height="131.01" transform="translate(392.25 917.32) rotate(180)"/>
          <path class="cls-2" d="M196.12,524.17v-131.01c-36.11,0-65.37,29.33-65.37,65.51s29.27,65.51,65.37,65.51Z"/>
          <polygon class="cls-5" points="196.12 393.15 261.5 458.66 196.12 524.17 196.12 393.15"/>
        </g>
        <g>
          <rect class="cls-2" x="653.75" y="262.14" width="130.75" height="131.02" transform="translate(1438.24 655.29) rotate(180)"/>
          <path class="cls-1" d="M704.24,281.75h60.68v60.86c0,17.07-13.86,30.93-30.93,30.93h-29.75c-17.07,0-30.93-13.86-30.93-30.93v-29.94c0-17.07,13.86-30.93,30.93-30.93Z"/>
          <ellipse class="cls-4" cx="719.12" cy="327.65" rx="24.45" ry="24.5"/>
        </g>
        <g>
          <rect class="cls-4" x="392.25" y="262.14" width="130.75" height="131.02"/>
          <path class="cls-5" d="M523,327.65h-130.75c0,36.18,29.27,65.51,65.37,65.51s65.37-29.33,65.37-65.51Z"/>
          <path class="cls-2" d="M457.62,262.14v65.51h65.37c0-36.18-29.27-65.51-65.37-65.51Z"/>
          <ellipse class="cls-1" cx="457.62" cy="327.65" rx="18.66" ry="18.7"/>
        </g>
      </g>
    </g>
  </g>
</svg>