<?xml version="1.0" encoding="UTF-8"?>
<svg id="Camada_2" data-name="Camada 2" xmlns="http://www.w3.org/2000/svg" viewBox="0 0 771.39 243">
  <defs>
    <style>
      .cls-1 {
        fill: #fff;
      }

      .cls-2 {
        fill: #00cf21;
      }
    </style>
  </defs>
  <g id="Camada_1-2" data-name="Camada 1">
    <circle class="cls-2" cx="649.89" cy="121.5" r="121.5"/>
    <g>
      <path class="cls-1" d="M108.16,75.99c-1.28-4.78-3.18-8.99-5.68-12.64-2.5-3.64-5.71-6.71-9.64-9.21-3.93-2.5-8.6-4.39-14.03-5.68-5.43-1.29-11.64-1.93-18.63-1.93H0v23.56c0,.72.21,1.29.64,1.71.43.43,1,.64,1.71.64h8.14v121.66c0,.72.21,1.29.64,1.71s1,.64,1.71.64h28.49v-45.84h19.06c8.85,0,16.46-1.03,22.81-3.11,6.35-2.07,11.49-5.07,15.42-8.99,3.92-3.93,6.82-8.71,8.67-14.35,1.85-5.64,2.78-12.03,2.78-19.17v-13.07c0-5.85-.64-11.17-1.93-15.96ZM79.03,106.08c0,3.43-.36,6.29-1.07,8.57-.72,2.29-1.86,4.14-3.43,5.57-1.57,1.43-3.53,2.5-5.89,3.21-2.36.72-5.11,1.07-8.25,1.07h-19.06v-52.05h19.06c3.43,0,6.35.32,8.78.96,2.43.64,4.35,1.75,5.78,3.32,1.43,1.43,2.46,3.25,3.11,5.46.64,2.22.96,4.96.96,8.25v15.64Z"/>
      <path class="cls-1" d="M190.28,47.18c-.43-.43-1-.64-1.71-.64h-74.32v23.77c0,.57.25,1.11.75,1.61.5.5,1.03.75,1.61.75h20.56v97.67h-22.92v23.78c0,.29.07.57.21.86.14.29.32.54.53.75.22.21.46.4.75.54.29.14.57.21.86.21h74.32v-23.77c0-.43-.11-.82-.32-1.18-.21-.36-.5-.64-.86-.86-.36-.21-.75-.32-1.18-.32h-20.56v-97.67h22.92v-23.78c0-.71-.21-1.28-.64-1.71Z"/>
      <path class="cls-1" d="M413.15,47.71c-.21-.35-.5-.64-.86-.86-.36-.21-.75-.32-1.18-.32h-98.31v23.77c0,.43.11.82.32,1.18.22.36.5.64.86.86.36.21.75.32,1.18.32h7.92v121.44c0,.29.07.57.21.86.14.29.32.54.54.75s.46.4.75.54c.29.14.57.21.86.21h88.03v-23.77c0-.71-.21-1.29-.64-1.71s-1-.64-1.71-.64h-57.19v-36.63h46.91v-22.92c0-.43-.11-.82-.32-1.18-.22-.36-.5-.64-.86-.86-.36-.21-.75-.32-1.18-.32h-44.55v-35.77h59.54v-23.78c0-.43-.11-.82-.32-1.18Z"/>
      <path class="cls-1" d="M512.25,155.02c-.21-.36-.5-.64-.86-.86-.36-.22-.75-.32-1.18-.32h-24.85v16.49h-33.2V48.89c0-.43-.11-.82-.32-1.18-.21-.35-.5-.64-.86-.86-.36-.21-.75-.32-1.18-.32h-28.49v147.57c0,.29.07.57.21.86.14.29.32.54.54.75s.46.4.75.54c.28.14.57.21.86.21h88.89v-40.27c0-.43-.11-.82-.32-1.18Z"/>
      <path class="cls-1" d="M308.76,46.46h-28.28c-1.59,0-3.05.84-3.86,2.2l-27.61,46.69-27.61-46.69c-.81-1.37-2.28-2.2-3.86-2.2h-28.28l44.34,74.96-44.34,74.96h26.86c2.47,0,4.75-1.3,6.01-3.43l26.89-45.46,26.89,45.46c1.26,2.12,3.54,3.43,6.01,3.43h26.86l-44.34-74.96,44.34-74.96Z"/>
    </g>
    <g>
      <path class="cls-1" d="M676.13,46.54c-2.41,0-4.51,1.64-5.09,3.97l-21.14,84.41-21.14-84.41c-.59-2.34-2.68-3.97-5.09-3.97h-26.74l37.55,149.93h30.86l37.55-149.93h-26.75Z"/>
      <rect class="cls-1" x="686.44" y="175.46" width="21" height="21"/>
    </g>
  </g>
</svg>